<?xml version="1.0" encoding="UTF-8"?>
<!DOCTYPE svg PUBLIC "-//W3C//DTD SVG 1.1//EN" "http://www.w3.org/Graphics/SVG/1.1/DTD/svg11.dtd">
<!-- Creator: CorelDRAW 2020 (64-Bit) -->
<svg xmlns="http://www.w3.org/2000/svg" xml:space="preserve" width="297mm" height="210mm" version="1.1" style="shape-rendering:geometricPrecision; text-rendering:geometricPrecision; image-rendering:optimizeQuality; fill-rule:evenodd; clip-rule:evenodd"
viewBox="0 0 29700 21000"
 xmlns:xlink="http://www.w3.org/1999/xlink"
 xmlns:xodm="http://www.corel.com/coreldraw/odm/2003">
 <defs>
  <style type="text/css">
   <![CDATA[
    .fil1 {fill:#FEFEFE}
    .fil0 {fill:#A00E07}
   ]]>
  </style>
 </defs>
 <g id="Слой_x0020_1">
  <metadata id="CorelCorpID_0Corel-Layer"/>
  <rect class="fil0" x="3648.58" y="1345.68" width="21758.34" height="18764.46"/>
  <g id="_1615518923792">
   <path class="fil1" d="M9412.64 13240.67c0,1020.51 335.81,1944.71 876.76,2761.18 473.95,715.33 1187.38,1301.92 1952.78,1685.22 1614.35,808.51 3642.95,624.68 5089.48,-421.8 229.41,-165.95 364.59,-306.92 499.5,-409.96 64.65,-49.33 97.2,-85.74 157.49,-145.71l538.62 -650.71c508.75,-688.94 913.01,-1769.8 913.01,-2724.93l0 -4104.33 -2471.92 0 0 3824.49c0,961.9 -429.4,1740.58 -1063.2,2178.3 -713.76,492.97 -1582.35,634.11 -2415.18,297.31 -806.08,-325.98 -1359.96,-1004.21 -1544.91,-1859.82 -83.32,-385.42 -37.18,-3122.82 -37.18,-3927.26 0,-220.54 44.53,-513.02 -69.99,-513.02l-2425.26 0 0 4011.04z"/>
   <path class="fil1" d="M12677.45 7037.53l0 93.29 -629.64 0c10.79,-129.62 120.69,-171.27 202.99,-240.1l486.89 -445.93c84.89,-108.88 137.88,-142.81 172.97,-293.47 190.88,-44.43 333.52,-10.99 466.12,-326.72 54.67,-130.09 24.59,-162.98 163.52,-162.98 80.98,0 92.83,116.62 279.85,116.62 200.02,0 13.19,-114.74 279.04,-47.43 118.82,30.08 108.88,-32.03 233.98,-115.79 201.92,47.02 36.88,139.89 303.17,139.89 129.07,0 46.66,-209.88 256.49,-209.88 97.64,0 144.63,54.04 190.68,112.52 163.3,207.34 374.45,594.22 502.78,733.18 56.57,61.25 99.81,74.97 163.94,139.23 136.56,136.78 185.8,177.38 401.91,227.73 94.64,-141.33 186.61,-121.3 279.92,-0.09 70.79,92 52.06,62.42 169.78,110.07 130.14,52.69 133.5,59.13 184.68,141.79 17.1,27.6 6.06,13.33 27.82,42.14 66.05,87.54 21.01,-30.49 60.73,79.22l-699.6 0c0,-237.78 9.39,-174.85 -64.81,-215.06l-771.38 -301.33c-1206.3,-482.12 -664.98,-411.03 -1807.71,-5.4l-687.92 268.2c-87.54,33.49 -125.99,40.15 -149.43,83.78 -22.22,41.48 -16.77,12.45 -16.77,76.52zm-3264.81 1072.73l0 443.09 2471.92 0 0 -1212.65 979.44 0c0,-350.77 -86.02,-246.57 366.52,-426.37l1195.94 -483.14 1199.3 479.75c451.41,180.52 363.16,89.49 363.16,429.76l979.44 0 0 1212.65 2471.92 0c0,-1016.82 -49.72,-1572.45 -474.05,-2487.61 -324.08,-698.92 -776.4,-1213.67 -1338.89,-1716.04 -105.41,-94.14 -224.23,-178.54 -342.31,-264.03 -68.45,-49.58 -110.97,-75.69 -184.18,-118.96 -74.37,-43.93 -110.59,-76.16 -186.8,-116.4 -855.09,-451.8 -1534.48,-660.6 -2557.55,-660.6 -872.66,0 -1758.71,283.7 -2400.99,653.96 -986.55,568.72 -1578.46,1274.49 -2076.56,2260.96 -240.53,476.37 -466.31,1288.15 -466.31,2005.63z"/>
   <path class="fil1" d="M13190.5 10372.3c0,245.63 62.94,524.01 147.19,692.33 249.8,499.2 1088.77,923.28 1088.77,1453.14 0,183.41 -2.59,361.31 -122.68,506.96 -335.37,406.82 -833.44,132.32 -833.44,-157.16 0,-81.5 -10.71,-279.84 209.88,-279.84 146.32,0 204.93,111.96 233.19,233.18 90.39,-66.21 69.96,-118.11 69.96,-279.84 0,-244.31 -568.5,-619.29 -792.87,-769.57 0,1076.13 -233.62,1975.7 633.42,2491.47 359.74,214.02 863.46,211.46 1223.15,-5.23 317.41,-191.23 615.35,-587.17 615.35,-970.41 0,-814.4 32.06,-1047.26 -542.14,-1626.63 -284.75,-287.34 -693.82,-524.32 -693.82,-1055.19 0,-602.46 578.74,-736.32 844.01,-494.21 171.32,156.36 198.01,517.54 -97.78,517.54 -77.45,0 -119.62,-30.99 -159.33,-73.88 -39.03,-42.08 -25.32,-30.51 -46.42,-70.18l-50.76 -89.15c-28.95,124.38 -46.63,29.44 -46.63,233.21 0,291.43 344.51,496.38 546.19,643.11l246.68 173.08 0 -2215.4 -2471.92 0 0 1142.67z"/>
   <path class="fil1" d="M15219.35 7154.12l-1585.78 0 393.18 -189.86c487.1,-197.26 229.85,-278.6 1092.29,126.92l100.31 62.94zm-2122.14 0c0,108.08 -33.46,233.21 69.96,233.21l2588.54 0 0 -233.21c-158.24,-36.85 -1237.2,-536.38 -1329.25,-536.38 -41.21,0 -577.45,229.02 -666.44,266.37 -115.77,48.64 -213.9,86.71 -328.38,138.05 -91.22,40.87 -244.47,111 -334.43,131.96z"/>
   <polygon class="fil1" points="14822.89,8553.35 15009.47,8553.35 15009.47,7503.92 14822.89,7503.92 "/>
   <polygon class="fil1" points="15149.39,8553.35 15335.94,8553.35 15335.94,7503.92 15149.39,7503.92 "/>
   <polygon class="fil1" points="14169.95,8553.35 14356.5,8553.35 14356.5,7503.92 14169.95,7503.92 "/>
   <polygon class="fil1" points="14496.42,8553.35 14682.97,8553.35 14682.97,7503.92 14496.42,7503.92 "/>
   <path class="fil1" d="M13843.45 7573.88l0 979.47 186.58 0 0 -1049.43 -116.62 0c-53.71,0 -69.96,16.22 -69.96,69.96z"/>
   <polygon class="fil1" points="12187.7,8553.35 12397.61,8553.35 12397.61,8180.22 12187.7,8180.22 "/>
   <polygon class="fil1" points="12794.04,8553.35 13003.92,8553.35 13003.92,8180.22 12794.04,8180.22 "/>
   <path class="fil1" d="M12490.9 8483.37c0,53.73 16.22,69.98 69.96,69.98l139.92 0 0 -373.13 -209.88 0 0 303.15z"/>
   <polygon class="fil1" points="15497.04,8543.19 15683.59,8543.19 15683.59,7493.75 15497.04,7493.75 "/>
   <polygon class="fil1" points="13492.94,8553.35 13679.49,8553.35 13679.49,7503.92 13492.94,7503.92 "/>
   <polygon class="fil1" points="13163.58,8553.35 13350.13,8553.35 13350.13,7503.92 13163.58,7503.92 "/>
   <polygon class="fil1" points="12187.7,7975.97 12397.61,7975.97 12397.61,7602.84 12187.7,7602.84 "/>
   <polygon class="fil1" points="12794.04,7975.97 13003.92,7975.97 13003.92,7602.84 12794.04,7602.84 "/>
   <path class="fil1" d="M12490.9 7905.98c0,53.74 16.22,69.99 69.96,69.99l139.92 0 0 -373.13 -209.88 0 0 303.14z"/>
   <polygon class="fil1" points="15852.63,8553.35 16062.54,8553.35 16062.54,8180.22 15852.63,8180.22 "/>
   <polygon class="fil1" points="16458.97,8553.35 16668.85,8553.35 16668.85,8180.22 16458.97,8180.22 "/>
   <path class="fil1" d="M16155.83 8483.37c0,53.73 16.22,69.98 69.96,69.98l139.92 0 0 -373.13 -209.88 0 0 303.15z"/>
   <polygon class="fil1" points="15852.63,7975.97 16062.54,7975.97 16062.54,7602.84 15852.63,7602.84 "/>
   <polygon class="fil1" points="16458.97,7975.97 16668.85,7975.97 16668.85,7602.84 16458.97,7602.84 "/>
   <path class="fil1" d="M16155.83 7905.98c0,53.74 16.22,69.99 69.96,69.99l139.92 0 0 -373.13 -209.88 0 0 303.14z"/>
  </g>
 </g>
</svg>
